<?xml version="1.0" encoding="UTF-8"?>
<svg id="Camada_2" data-name="Camada 2" xmlns="http://www.w3.org/2000/svg" xmlns:xlink="http://www.w3.org/1999/xlink" viewBox="0 0 680.62 479.54">
  <defs>
    <style>
      .cls-1 {
        fill: url(#Gradiente_sem_nome_18);
        stroke-width: 0px;
      }
    </style>
    <linearGradient id="Gradiente_sem_nome_18" data-name="Gradiente sem nome 18" x1="78.3" y1="548.75" x2="598.61" y2="28.44" gradientUnits="userSpaceOnUse">
      <stop offset=".19" stop-color="#08d2fe"/>
      <stop offset=".29" stop-color="#0bc8f7"/>
      <stop offset=".45" stop-color="#16afe4"/>
      <stop offset=".55" stop-color="#1e9cd7"/>
      <stop offset=".93" stop-color="#8a00ff"/>
    </linearGradient>
  </defs>
  <g id="Camada_2-2" data-name="Camada 2">
    <path class="cls-1" d="M411,294.43L533.74,0h146.88c-8.5,18.34-13.98,63.83-16.43,136.49-2.46,72.67-2.01,144.2,1.34,214.62,3.35,70.42,8.38,113.24,15.09,128.44h-168.34c16.54-32.63,23.69-125.42,21.46-278.33V56.34l-177.06,423.2h-22.8L227.9,104.63c-3.13-8.94-5.48-15.65-7.04-20.12-1.57-4.46-4.7-11.51-9.39-21.13-4.7-9.61-9.5-16.87-14.42-21.8-4.93-4.92-11.4-9.05-19.45-12.41-8.05-3.35-16.77-4.13-26.16-2.35-16.1,4.02-28.28,14.42-36.55,31.19-8.28,16.77-11.07,35.66-8.38,56.67,3.12,26.83,14.52,49.63,34.21,68.41,19.67,18.78,46.72,27.73,81.15,26.83-13.41,20.57-32.42,34.88-57.01,42.92-24.59,8.05-48.52,9.73-71.76,5.03-23.25-4.69-43.93-15.43-62.04-32.19C12.95,208.92,2.77,188.24.54,163.65c-2.23-23.69,2.45-47.72,14.08-72.1,11.62-24.36,27.5-43.03,47.62-56,16.54-11.17,36.1-19.55,58.69-25.15,22.57-5.59,44.82-8.38,66.73-8.38h142.19l81.15,292.42ZM231.93,478.87l-123.41.67c34.43-16.99,51.64-52.53,51.64-106.64v-94.57c7.6-2.68,14.97-5.81,22.13-9.39v103.96c0,17.89,2.01,33.98,6.04,48.29,4.02,14.32,9.72,26.16,17.1,35.55,7.38,9.39,16.2,16.77,26.49,22.13Z"/>
  </g>
</svg>